<svg xmlns="http://www.w3.org/2000/svg" style="display:none">
<symbol id="ai:local:github" viewBox="0 0 1024 1024"><path fill="currentColor" fill-rule="evenodd" d="M512 0C229.12 0 0 229.12 0 512c0 226.56 146.56 417.92 350.08 485.76 25.6 4.48 35.2-10.88 35.2-24.32 0-12.16-.64-52.48-.64-95.36-128.64 23.68-161.92-31.36-172.16-60.16-5.76-14.72-30.72-60.16-52.48-72.32-17.92-9.6-43.52-33.28-.64-33.92 40.32-.64 69.12 37.12 78.72 52.48 46.08 77.44 119.68 55.68 149.12 42.24 4.48-33.28 17.92-55.68 32.64-68.48-113.92-12.8-232.96-56.96-232.96-252.8 0-55.68 19.84-101.76 52.48-137.6-5.12-12.8-23.04-65.28 5.12-135.68 0 0 42.88-13.44 140.8 52.48 40.96-11.52 84.48-17.28 128-17.28s87.04 5.76 128 17.28c97.92-66.56 140.8-52.48 140.8-52.48 28.16 70.4 10.24 122.88 5.12 135.68 32.64 35.84 52.48 81.28 52.48 137.6 0 196.48-119.68 240-233.6 252.8 18.56 16 34.56 46.72 34.56 94.72 0 68.48-.64 123.52-.64 140.8 0 13.44 9.6 29.44 35.2 24.32C877.44 929.92 1024 737.92 1024 512 1024 229.12 794.88 0 512 0" clip-rule="evenodd"/></symbol>
<symbol id="ai:local:figma" viewBox="0 0 24 24"><path fill="currentColor" d="M15.852 8.981h-4.588V0h4.588c2.476 0 4.49 2.014 4.49 4.49s-2.014 4.491-4.49 4.491M12.735 7.51h3.117c1.665 0 3.019-1.355 3.019-3.019s-1.355-3.019-3.019-3.019h-3.117zm0 1.471H8.148c-2.476 0-4.49-2.014-4.49-4.49S5.672 0 8.148 0h4.588v8.981zm-4.587-7.51c-1.665 0-3.019 1.355-3.019 3.019s1.354 3.02 3.019 3.02h3.117V1.471zm4.587 15.019H8.148c-2.476 0-4.49-2.014-4.49-4.49s2.014-4.49 4.49-4.49h4.588v8.98zM8.148 8.981c-1.665 0-3.019 1.355-3.019 3.019s1.355 3.019 3.019 3.019h3.117V8.981zM8.172 24c-2.489 0-4.515-2.014-4.515-4.49s2.014-4.49 4.49-4.49h4.588v4.441c0 2.503-2.047 4.539-4.563 4.539m-.024-7.51a3.023 3.023 0 0 0-3.019 3.019c0 1.665 1.365 3.019 3.044 3.019 1.705 0 3.093-1.376 3.093-3.068v-2.97zm7.704 0h-.098c-2.476 0-4.49-2.014-4.49-4.49s2.014-4.49 4.49-4.49h.098c2.476 0 4.49 2.014 4.49 4.49s-2.014 4.49-4.49 4.49m-.097-7.509c-1.665 0-3.019 1.355-3.019 3.019s1.355 3.019 3.019 3.019h.098c1.665 0 3.019-1.355 3.019-3.019s-1.355-3.019-3.019-3.019z"/></symbol>
<symbol id="ai:local:storybook" viewBox="0 0 256 319"><path fill="currentColor" fill-rule="evenodd" d="m190.165 3.052-1.5 36.075a2.383 2.383 0 0 0 2.585 2.479 2.4 2.4 0 0 0 1.244-.478l14.013-10.63 11.835 9.325a2.383 2.383 0 0 0 3.534-.662c.232-.392.346-.843.33-1.298L220.923 1.13 238.494.032c8.822-.552 16.42 6.153 16.972 14.975q.03.498.031.998v286.314c0 8.839-7.165 16.004-16.004 16.004q-.36 0-.718-.016l-213.627-9.595c-8.32-.373-14.963-7.065-15.276-15.388L.012 30.574C-.315 21.894 6.338 14.54 15.005 14zm6.821 115.797c-5.63 4.374-47.572 7.358-47.572 1.131.886-23.76-9.751-24.801-15.66-24.801-5.615 0-15.07 1.697-15.07 14.425 0 12.971 13.817 20.293 30.036 28.888 23.04 12.21 50.925 26.987 50.925 64.172 0 35.639-28.957 55.326-65.892 55.326-38.117 0-71.427-15.421-67.665-68.887 1.478-6.278 49.936-4.786 49.936 0-.591 22.062 4.433 28.552 17.138 28.552 9.751 0 14.184-5.374 14.184-14.426 0-13.698-14.398-21.781-30.96-31.08-22.425-12.591-48.82-27.41-48.82-61.414 0-33.942 23.343-56.57 65.005-56.57 41.663 0 64.415 22.282 64.415 64.684" clip-rule="evenodd"/></symbol>
</svg>
