<svg width="512" height="384" viewBox="0 0 512 384" fill="none" xmlns="http://www.w3.org/2000/svg">
<rect width="512" height="384" fill="white"/>
<path d="M172 128C180 117.333 188 117.333 196 128C204 138.667 212 138.667 220 128C228 117.333 236 117.333 244 128C252 138.667 260 138.667 268 128C276 117.333 284 117.333 292 128" stroke="#606F7B" stroke-width="2" stroke-linecap="round"/>
<path d="M155 120L139 136L123 120" stroke="black" stroke-width="2" stroke-linecap="round" stroke-linejoin="round"/>
<path d="M131 304L147 320L131 336" stroke="black" stroke-width="2" stroke-linecap="round" stroke-linejoin="round"/>
<path d="M131 48L147 64L131 80" stroke="black" stroke-width="2" stroke-linecap="round" stroke-linejoin="round"/>
<path d="M195 191C203.083 180.333 211.167 180.333 219.25 191C227.333 201.667 235.417 201.667 243.5 191C251.583 180.333 259.667 180.333 267.75 191C275.833 201.667 283.917 201.667 292 191C300.083 180.333 308.167 180.333 316.25 191C324.333 201.667 332.417 201.667 340.5 191C348.583 180.333 356.667 180.333 364.75 191C372.833 201.667 380.917 201.667 389 191" stroke="#606F7B" stroke-width="2" stroke-linecap="round" stroke-linejoin="round"/>
<path d="M172 64C180.083 53.3333 188.167 53.3333 196.25 64C204.333 74.6667 212.417 74.6667 220.5 64C228.583 53.3333 236.667 53.3333 244.75 64C252.833 74.6667 260.917 74.6667 269 64C277.083 53.3333 285.167 53.3333 293.25 64C301.333 74.6667 309.417 74.6667 317.5 64C325.583 53.3333 333.667 53.3333 341.75 64C349.833 74.6667 357.917 74.6667 366 64" stroke="#606F7B" stroke-width="2" stroke-linecap="round" stroke-linejoin="round"/>
<path d="M196 255C204.111 243 212.222 243 220.333 255C228.444 267 236.556 267 244.667 255C252.778 243 260.889 243 269 255C277.111 267 285.222 267 293.333 255C301.444 243 309.556 243 317.667 255C325.778 267 333.889 267 342 255" stroke="#606F7B" stroke-width="2" stroke-linecap="round"/>
<path d="M172 320C180 309.333 188 309.333 196 320C204 330.667 212 330.667 220 320C228 309.333 236 309.333 244 320" stroke="#606F7B" stroke-width="2" stroke-linecap="round"/>
</svg>